# xmcd
#
# Track frame offsets:
#	150
#	17853
#	37635
#	50103
#	61737
#	74658
#	86343
#	97530
#	111820
#	126537
#	143707
#	162811
#	173526
#	190824
#	207426
#	222367
#	237751
#	253090
#	269361
#	282570
#	300516
#	314132
#	325801
#	338254
#
# Disc length: 4762 seconds
#
# Revision: 1
# Processed by: cddbd v1.5.2PL0 Copyright (c) Steve Scherf et al.
# Submitted via: audiograbber 1.83.01
#
DISCID=57129818
DTITLE=Various Artist - Best Country Album Ever - CD1
DYEAR=2006
DGENRE=
TTITLE0=Shania Twain - Man I Feel Like A Woman
TTITLE1=Mavericks (The) - Dance The Night Away
TTITLE2=Dolly Parton - 9 To 5
TTITLE3=Johnny Cash - Ring Of Fire
TTITLE4=Lynn Anderson - Rose Garden
TTITLE5=Roy Orbison - Dream Baby (How Long Must I Dream)
TTITLE6=Roger Miller - King Of The Road
TTITLE7=Glen Campbell - Rhinestone Cowboy
TTITLE8=Bellamy Brothers - Let Your Love Flow
TTITLE9=C W McCall - Convoy
TTITLE10=Soggy Bottom Boys - I Am A Man Of Constant Sorrow
TTITLE11=Leroy Van Dyke - Walk On By
TTITLE12=Alan Jackson And Jimmy Buffett - It's Five O'Clock Somewhere
TTITLE13=Tony Joe White - Polk Salad Annie
TTITLE14=Asleep At The Wheel - Lay Down Sally
TTITLE15=Tim McGraw - I Like It I Love It
TTITLE16=Billy Ray Cyrus - Achy Breaky Heart
TTITLE17=Charlie Daniels Band - Devil Went Down To Georgia (The)
TTITLE18=Flying Burrito Brothers - Six Days On The Road
TTITLE19=Pat Green - Wave On Wave
TTITLE20=Kenny Rogers And The First Edition - Ruby Don't Take Your Love To Town
TTITLE21=Patsy Cline - Walkin' After Midnight
TTITLE22=Jim Reeves - I Love You Because
TTITLE23=Nanci Griffith - From A Distance
EXTD=
EXTT0=
EXTT1=
EXTT2=
EXTT3=
EXTT4=
EXTT5=
EXTT6=
EXTT7=
EXTT8=
EXTT9=
EXTT10=
EXTT11=
EXTT12=
EXTT13=
EXTT14=
EXTT15=
EXTT16=
EXTT17=
EXTT18=
EXTT19=
EXTT20=
EXTT21=
EXTT22=
EXTT23=
PLAYORDER=
